<svg width="115" height="81" viewBox="0 0 115 81" fill="none" xmlns="http://www.w3.org/2000/svg">
<path d="M105.694 30.6904H19.8799L74.489 5.86088L75.2811 7.60331C75.4395 7.92011 75.7563 8.07851 76.0731 8.03891C76.1523 8.03891 76.2315 7.99931 76.3107 7.95971C76.7067 7.80131 76.8651 7.3261 76.7067 6.9301L75.9147 5.18767L87.3196 0C89.062 3.88085 92.5073 6.09848 96.3881 4.35606L97.5762 7.0489C96.4673 7.5637 95.9921 8.87052 96.4673 9.97934C96.9822 11.0882 98.2494 11.5634 99.3582 11.0882L100.625 13.8998C99.5166 14.4146 99.0414 15.7214 99.5166 16.8302C99.9918 17.939 101.299 18.4143 102.407 17.939L103.675 20.7507C102.566 21.2655 102.091 22.5327 102.566 23.6811C103.081 24.7899 104.348 25.2652 105.457 24.7899L106.724 27.6016C105.615 28.1164 105.14 29.3836 105.615 30.532C105.655 30.6112 105.694 30.6508 105.694 30.6904Z" fill="white"/>
<path d="M107.635 35.8386C107.595 35.4426 107.556 35.0862 107.556 34.6902L107.635 35.8386Z" fill="white"/>
<path d="M112.466 45.2235C112.466 46.4512 113.574 47.4412 114.96 47.4016V50.4904C113.574 50.4904 112.426 51.4804 112.426 52.708C112.426 53.9357 113.535 54.9257 114.921 54.8861V57.9749C113.535 57.9749 112.386 58.9649 112.386 60.1925C112.386 61.4202 113.495 62.4102 114.881 62.3706V65.4594C113.495 65.4594 112.347 66.4494 112.347 67.6771C112.347 68.9047 113.456 69.8947 114.842 69.8551V72.8251C109.971 72.8251 107.357 76.31 107.357 80.5472L92.9821 80.5868V78.686C92.9821 78.2504 92.5861 77.9336 92.1109 77.9336C91.6357 77.9336 91.2397 78.29 91.2397 78.686V80.5868L7.4449 80.8244C7.4449 76.5476 4.87087 73.1023 0 73.1419V70.1719C1.38602 70.1719 2.53443 69.1819 2.53443 67.9543C2.53443 66.7266 1.42562 65.7366 0.0395999 65.7762V62.6874C1.42562 62.6874 2.57404 61.6974 2.57404 60.4698C2.57404 59.2421 1.46522 58.2521 0.0791999 58.2917V55.2029C1.46522 55.2029 2.57404 54.2129 2.61364 52.9853C2.61364 51.7576 1.50482 50.7676 0.118801 50.8072V47.7184C1.50482 47.7184 2.65324 46.7284 2.65324 45.5007C2.65324 44.2731 1.54442 43.2831 0.158401 43.3227V40.3527C4.98967 40.3527 7.6033 36.9074 7.6429 32.6702H91.3981V34.2938C91.3981 34.6502 91.6357 34.9274 91.9921 35.0066C92.0713 35.0462 92.1901 35.0462 92.2693 35.0462C92.7445 35.0462 93.1405 34.6898 93.1405 34.2938V32.6702H107.555C107.555 33.0266 107.595 33.3434 107.634 33.6998C108.11 37.3034 110.644 40.0359 115 40.0359V43.0059C113.574 43.0059 112.466 43.9959 112.466 45.2235Z" fill="white"/>
<path d="M11.2462 32.6311L11.1274 32.7103H7.64258V32.6707H7.84058L11.2462 32.6311Z" fill="white"/>
<path d="M11.2462 36.8286L11.1274 36.9078H7.64258V36.8682H7.84058L11.2462 36.8286Z" fill="#1C1C1C"/>
<path d="M11.2462 32.6311L11.1274 32.7103H7.64258L7.84058 32.6707L11.2462 32.6311Z" fill="#858585"/>
<path d="M75.2809 57.8958C75.4393 58.5294 75.8353 58.8858 76.3897 59.0046C77.1025 59.163 77.7758 59.1234 78.3698 58.6086C78.449 58.569 78.5678 58.5294 78.647 58.569C79.043 58.767 79.3994 59.0046 79.835 59.2422C79.439 59.8362 78.9242 60.2322 78.251 60.4303C76.6273 60.9451 74.8849 60.3907 74.0533 59.0442C73.3405 57.8562 73.3801 56.589 74.0929 55.401C74.8057 54.2526 75.9145 53.7774 77.261 53.8962C78.6074 54.015 79.5182 54.7674 79.9538 56.0346C80.1122 56.5098 80.0726 57.0642 80.1518 57.579C80.1914 57.8166 80.033 57.8958 79.7954 57.8958C78.449 57.8958 77.1422 57.8958 75.7957 57.8958C75.5977 57.8958 75.4393 57.8958 75.2809 57.8958ZM75.2809 56.589C76.3105 56.589 77.3401 56.589 78.4094 56.589C78.4094 55.8762 77.6174 55.3218 76.9045 55.3218C76.1125 55.3218 75.3205 55.797 75.2809 56.589Z" fill="black"/>
<path d="M69.3401 56.708C69.6569 56.2724 70.0133 55.8764 70.3301 55.4408C70.6469 55.0448 70.9241 54.6488 71.2409 54.2924C71.3597 54.1736 71.5577 54.0548 71.7161 54.0548C72.2309 54.0152 72.7457 54.0548 73.3397 54.0548C73.2605 54.1736 73.2209 54.2528 73.1417 54.332C72.4685 55.1636 71.7953 56.0348 71.0825 56.8268C70.8845 57.0644 70.8449 57.2624 71.0825 57.5C71.7953 58.3317 72.5081 59.2029 73.2209 60.0741C73.2605 60.1533 73.3001 60.2325 73.4189 60.3513C72.7853 60.3513 72.2309 60.3513 71.6765 60.3513C71.5577 60.3513 71.4785 60.2325 71.3993 60.1533C70.8053 59.4009 70.1717 58.6485 69.5777 57.8961C69.4985 57.8169 69.4193 57.6981 69.3401 57.6189C69.3005 57.6189 69.2609 57.6189 69.2609 57.6585C69.2609 57.9357 69.2609 58.2129 69.2609 58.4505C69.2609 58.9653 69.2609 59.5197 69.2609 60.0345C69.2609 60.3117 69.1817 60.3909 68.9045 60.3513C68.5877 60.3513 68.2313 60.3513 67.9145 60.3513C67.7165 60.3513 67.5977 60.2721 67.5977 60.0741C67.5977 57.302 67.5977 54.53 67.5977 51.758C67.5977 51.5204 67.6769 51.4412 67.8749 51.4412C68.1917 51.4412 68.5481 51.4412 68.8649 51.4412C69.1421 51.4412 69.2213 51.5204 69.2213 51.7976C69.2213 53.3024 69.2213 54.8072 69.2213 56.312C69.2213 56.4308 69.2213 56.51 69.2213 56.6288C69.3005 56.6684 69.3401 56.708 69.3401 56.708Z" fill="black"/>
<path d="M66.7268 58.8859C66.0536 60.1927 64.3903 60.8263 62.8855 60.4303C61.3807 60.0343 60.4303 58.6087 60.5095 56.985C60.6283 55.3614 61.6975 54.1338 63.2815 53.8962C64.7071 53.6586 66.2516 54.3714 66.6872 55.5198C66.2516 55.797 65.816 56.0346 65.3407 56.3118C65.2615 56.2326 65.2219 56.193 65.1823 56.1138C64.5883 55.3614 63.4399 55.2426 62.7271 55.8762C61.9747 56.5494 61.9747 57.777 62.6875 58.4899C63.4003 59.1631 64.5487 59.1235 65.1823 58.3711C65.3407 58.1731 65.4596 58.1731 65.618 58.2919C65.9744 58.4503 66.3308 58.6879 66.7268 58.8859Z" fill="black"/>
<path d="M84.7057 58.886C84.7057 59.3613 84.7057 59.7573 84.7057 60.1929C84.7057 60.2721 84.5473 60.3909 84.4681 60.3909C83.9137 60.3909 83.3989 60.3909 82.8445 60.3117C82.0921 60.1533 81.7357 59.5989 81.6565 58.886C81.5773 57.9752 81.6169 57.0248 81.5773 56.114C81.5773 55.6388 81.5773 55.6388 81.1417 55.6388C80.3497 55.6388 80.5081 55.718 80.5081 54.9656C80.5081 54.6884 80.4289 54.332 80.5873 54.134C80.7061 53.9756 81.1021 54.0548 81.3793 54.0548C81.5773 54.0548 81.6565 53.9756 81.6565 53.7776C81.6565 53.54 81.6565 53.2628 81.6565 53.0252C81.6565 52.9064 81.7357 52.7876 81.8149 52.7084C81.8941 52.6292 82.0129 52.6292 82.1317 52.5896C82.4881 52.4708 82.8445 52.3916 83.2801 52.2332C83.2801 52.7084 83.2801 53.1044 83.2801 53.5004C83.2801 54.0152 83.2801 54.0152 83.7949 54.0152C84.0325 54.0152 84.2305 54.0152 84.4681 54.0152C84.6661 54.0152 84.7453 54.0944 84.7453 54.2924C84.7453 54.6488 84.7453 54.9656 84.7453 55.322C84.7453 55.52 84.6661 55.5992 84.4681 55.5992C84.1909 55.5992 83.8741 55.5992 83.5969 55.5992C83.3593 55.5992 83.2801 55.6784 83.2801 55.916C83.2801 56.6684 83.2801 57.4208 83.2801 58.1732C83.2801 58.688 83.4781 58.8464 83.9929 58.886C84.1909 58.9256 84.4285 58.886 84.7057 58.886Z" fill="black"/>
<path d="M55.1236 55.9953C55.1236 56.5497 55.1236 57.1041 55.1236 57.6585C55.1236 57.8565 55.1236 58.0545 55.1236 58.2921C55.1236 58.7674 55.3216 58.9654 55.8364 58.9654C55.876 58.9654 55.876 58.9654 55.9156 58.9654C56.5888 59.005 56.5888 59.005 56.5888 59.599C56.5888 59.6386 56.5888 59.6782 56.5888 59.6782C56.5888 60.3514 56.5888 60.3514 55.876 60.3514C55.5592 60.3514 55.282 60.3118 54.9652 60.2722C54.1336 60.1534 53.6584 59.6782 53.5396 58.807C53.5 58.3713 53.5 57.8961 53.5 57.4605C53.5 57.3813 53.5396 57.3021 53.5792 57.2625C53.698 57.1437 53.8168 57.0249 53.9356 56.9061C54.292 56.5497 54.6088 56.1933 54.9652 55.8369C55.0048 55.9557 55.0444 55.9953 55.1236 55.9953Z" fill="black"/>
<path d="M31.918 57.1042C31.6408 57.619 31.324 58.0942 31.0468 58.609C30.4924 59.5594 29.938 60.4702 29.4232 61.4207C28.8292 62.4503 29.0272 62.2919 27.8788 62.2919C26.8888 62.2919 25.8988 62.2919 24.9088 62.2919C24.2751 62.2919 23.6415 62.2919 22.9683 62.2919C22.5723 62.2919 22.3347 62.1731 22.1763 61.8167C21.8595 61.2227 21.5031 60.6286 21.1467 59.995C21.0279 59.797 20.9091 59.7574 20.7111 59.7574C20.0379 59.7574 19.3647 59.7574 18.6915 59.7574V59.3218C18.7707 59.3218 18.8499 59.3218 18.9291 59.3218C20.2359 59.3218 21.5427 59.3218 22.8495 59.3218C22.8891 59.3218 22.9683 59.3218 23.0475 59.3614C23.1663 59.401 23.2851 59.4406 23.3643 59.5198C25.4632 61.2226 28.4332 60.193 29.2252 57.619C29.2252 57.619 29.2252 57.619 29.2252 57.5794C29.4628 56.7478 29.3836 56.6686 28.5124 56.6686C28.0372 56.6686 27.562 56.6686 27.1264 56.6686C26.968 56.6686 26.8492 56.7082 26.8096 56.8666C26.77 57.025 26.6908 57.1438 26.6116 57.2626C26.3344 57.7774 25.8988 57.9358 25.3444 57.7774C24.8692 57.6586 24.4731 57.1834 24.4731 56.6686C24.4731 56.1934 24.7899 55.6786 25.2652 55.5202C25.582 55.4014 25.9384 55.4806 26.2156 55.639C26.2948 55.6786 26.4136 55.7182 26.4928 55.7974C27.0472 55.243 27.6016 54.6886 28.1956 54.0946C27.9976 53.9362 27.8392 53.7777 27.6412 53.6193C27.6016 53.6193 27.6016 53.5797 27.562 53.5797C26.2552 52.7481 24.5919 52.8669 23.3643 53.8569C23.2059 53.9757 23.0475 54.0549 22.8495 54.0549C21.4635 54.0549 20.1171 54.0549 18.7311 54.0549H18.2955C18.2955 53.8965 18.2955 53.7777 18.2559 53.6193H19.0083C19.5627 53.6193 20.0775 53.6193 20.6319 53.6193C20.8299 53.6193 20.9487 53.5797 21.0279 53.3817C21.3843 52.7481 21.7407 52.1145 22.0971 51.5205C22.2555 51.2433 22.4535 51.1245 22.7703 51.1245C24.6315 51.1245 26.4928 51.1245 28.354 51.1245C28.6708 51.1245 28.8688 51.2433 29.0272 51.5205C29.9776 53.1441 30.8884 54.7678 31.8389 56.3914C32.0765 56.629 32.0369 56.8666 31.918 57.1042Z" fill="black"/>
<path d="M15.0479 56.9063C15.0479 56.7479 15.0479 56.6291 15.0479 56.5103C17.3843 56.5103 19.6811 56.5103 22.0175 56.5103C22.0175 56.6291 22.0175 56.7875 22.0175 56.9063C19.6811 56.9063 17.3843 56.9063 15.0479 56.9063Z" fill="black"/>
<path d="M22.6908 58.8465H16.5527V58.4109H16.9091C18.612 58.4109 20.3544 58.4109 22.0572 58.4109C22.2552 58.4109 22.374 58.4505 22.4532 58.5297C22.572 58.5693 22.6116 58.6881 22.6908 58.8465Z" fill="black"/>
<path d="M22.1766 55.5991C22.0974 56.0347 22.0974 56.0347 21.7014 56.0347C20.3154 56.0347 18.9294 56.0347 17.5434 56.0347C17.4246 56.0347 17.3454 56.0347 17.2266 56.0347C17.2266 55.8763 17.2266 55.7575 17.2266 55.5991C18.8898 55.5991 20.5134 55.5991 22.1766 55.5991Z" fill="black"/>
<path d="M22.6518 54.6092C22.5726 54.9656 22.3746 55.0844 22.0182 55.0448C20.7906 55.0052 19.563 55.0448 18.3354 55.0448C18.177 55.0448 18.0582 55.0448 18.0186 54.8072C18.0186 54.5696 18.177 54.5696 18.3354 54.5696C19.8006 54.6092 21.2262 54.6092 22.6518 54.6092Z" fill="black"/>
<path d="M22.176 57.8958H19.2852V57.4602H20.7108C21.0672 57.4602 21.4236 57.4206 21.8196 57.4602H21.8592C22.0968 57.4602 22.176 57.6582 22.176 57.8958Z" fill="black"/>
<path d="M15.207 55.9949C15.207 55.8365 15.207 55.7177 15.207 55.5593C15.4446 55.5593 15.6822 55.5593 15.9198 55.5593C15.9198 55.7177 15.9198 55.8365 15.9198 55.9949C15.6822 55.9949 15.4446 55.9949 15.207 55.9949Z" fill="black"/>
<path d="M13.9785 55.9949C13.9785 55.8365 13.9785 55.7177 13.9785 55.5593C14.2161 55.5593 14.4537 55.5593 14.6913 55.5593C14.6913 55.7177 14.6913 55.8365 14.6913 55.9949C14.4537 55.9949 14.2557 55.9949 13.9785 55.9949Z" fill="black"/>
<path d="M17.1475 55.0447C17.1475 54.8863 17.1475 54.7675 17.1475 54.6091C17.3851 54.6091 17.6227 54.6091 17.8603 54.6091C17.8603 54.7675 17.8603 54.8863 17.8603 55.0447C17.6227 55.0447 17.3851 55.0447 17.1475 55.0447Z" fill="black"/>
<path d="M16.2764 55.0447C16.2764 54.8863 16.2764 54.7675 16.2764 54.6091C16.4348 54.6091 16.5932 54.6091 16.7516 54.6091C16.7516 54.7675 16.7516 54.8863 16.7516 55.0447C16.5932 55.0447 16.4348 55.0447 16.2764 55.0447Z" fill="black"/>
<path d="M17.0674 54.0943C17.0674 53.9359 17.0674 53.8171 17.0674 53.6587C17.305 53.6587 17.5426 53.6587 17.7802 53.6587C17.7802 53.8171 17.7802 53.9359 17.7802 54.0943C17.5426 54.0943 17.305 54.0943 17.0674 54.0943Z" fill="black"/>
<path d="M15.999 54.0943C15.999 53.9359 15.999 53.8171 15.999 53.6587C16.2366 53.6587 16.4742 53.6587 16.7118 53.6587C16.7118 53.8171 16.7118 53.9359 16.7118 54.0943C16.4742 54.0943 16.2366 54.0943 15.999 54.0943Z" fill="black"/>
<path d="M14.6914 55.0447C14.6914 54.8863 14.6914 54.7675 14.6914 54.6091C14.929 54.6091 15.1666 54.6091 15.4042 54.6091C15.4042 54.7675 15.4042 54.8863 15.4042 55.0447C15.1666 55.0447 14.929 55.0447 14.6914 55.0447Z" fill="black"/>
<path d="M17.8594 59.3613C17.9782 59.3613 18.1366 59.3613 18.2554 59.3613C18.2554 59.5197 18.2554 59.6385 18.2554 59.7573C18.1366 59.7573 18.0178 59.7573 17.8594 59.7573C17.8594 59.6385 17.8594 59.5197 17.8594 59.3613Z" fill="black"/>
<path d="M17.1074 59.3613C17.2262 59.3613 17.3846 59.3613 17.5034 59.3613C17.5034 59.5197 17.5034 59.6385 17.5034 59.7573C17.3846 59.7573 17.2658 59.7573 17.1074 59.7573C17.1074 59.6385 17.1074 59.5197 17.1074 59.3613Z" fill="black"/>
<path d="M14.0186 58.4109C14.1374 58.4109 14.2562 58.4109 14.375 58.4109C14.375 58.5693 14.375 58.6881 14.375 58.8465C14.2562 58.8465 14.1374 58.8465 14.0186 58.8465C14.0186 58.6881 14.0186 58.5693 14.0186 58.4109Z" fill="black"/>
<path d="M14.8506 58.4109C14.9694 58.4109 15.0882 58.4109 15.207 58.4109C15.207 58.5693 15.207 58.6881 15.207 58.8465C15.0882 58.8465 14.9694 58.8465 14.8506 58.8465C14.8506 58.6881 14.8506 58.5693 14.8506 58.4109Z" fill="black"/>
<path d="M15.6816 58.4109C15.8004 58.4109 15.9192 58.4109 16.038 58.4109C16.038 58.5693 16.038 58.6881 16.038 58.8465C15.9192 58.8465 15.8004 58.8465 15.6816 58.8465C15.6816 58.6881 15.6816 58.5693 15.6816 58.4109Z" fill="black"/>
<path d="M18.5723 57.8963C18.5723 57.7379 18.5723 57.6191 18.5723 57.4607C18.6911 57.4607 18.8099 57.4607 18.9287 57.4607C18.9287 57.5795 18.9287 57.7379 18.9287 57.8963C18.8495 57.8963 18.7307 57.8963 18.5723 57.8963Z" fill="black"/>
<path d="M17.7803 57.8963C17.7803 57.7379 17.7803 57.6191 17.7803 57.4607C17.8991 57.4607 18.0179 57.4607 18.1367 57.4607C18.1367 57.5795 18.1367 57.7379 18.1367 57.8963C18.0179 57.8963 17.8991 57.8963 17.7803 57.8963Z" fill="black"/>
<path d="M14.1768 56.9063C14.1768 56.7479 14.1768 56.6291 14.1768 56.5103C14.2956 56.5103 14.4144 56.5103 14.5332 56.5103C14.5332 56.6291 14.5332 56.7479 14.5332 56.9063C14.4144 56.9063 14.3352 56.9063 14.1768 56.9063Z" fill="black"/>
<path d="M15.6816 55.0447C15.6816 54.8863 15.6816 54.7675 15.6816 54.6091C15.8004 54.6091 15.9192 54.6091 16.038 54.6091C16.038 54.7675 16.038 54.8863 16.038 55.0447C15.9192 55.0447 15.84 55.0447 15.6816 55.0447Z" fill="black"/>
<path d="M16.3945 55.9949C16.3945 55.8365 16.3945 55.7177 16.3945 55.5593C16.5133 55.5593 16.6321 55.5593 16.7509 55.5593C16.7509 55.7177 16.7509 55.8365 16.7509 55.9949C16.6321 55.9949 16.5133 55.9949 16.3945 55.9949Z" fill="black"/>
<path d="M13.2656 56.0345C13.2656 55.8761 13.2656 55.7177 13.2656 55.5593C13.424 55.5593 13.5428 55.5593 13.7012 55.5593C13.7012 55.7177 13.7012 55.8761 13.7012 56.0345C13.5428 56.0345 13.424 56.0345 13.2656 56.0345Z" fill="black"/>
<path d="M15.7217 57.8963C15.7217 57.7379 15.7217 57.6191 15.7217 57.4607C15.8405 57.4607 15.9593 57.4607 16.0781 57.4607C16.0781 57.5795 16.0781 57.7379 16.0781 57.8963C15.9593 57.8963 15.8405 57.8963 15.7217 57.8963Z" fill="black"/>
<path d="M17.5037 57.8963C17.5037 57.7379 17.5037 57.6191 17.5037 57.4607C17.1869 57.4607 16.8701 57.4607 16.5137 57.4607C16.5137 57.5795 16.5137 57.7379 16.5137 57.8963C16.8305 57.8963 17.1077 57.8963 17.5037 57.8963Z" fill="black"/>
<path d="M16.8299 59.7969C16.8299 59.6385 16.8299 59.5197 16.8299 59.4009C16.5131 59.4009 16.1962 59.4009 15.8398 59.4009C15.8398 59.5197 15.8398 59.6385 15.8398 59.7969C16.1566 59.7969 16.4339 59.7969 16.8299 59.7969Z" fill="black"/>
<path d="M55.0055 52.3917V54.0945C55.0055 54.1341 54.9659 54.1737 54.9263 54.1737H53.461C53.4214 54.1737 53.3818 54.1341 53.3818 54.0945V52.3917C53.3818 52.3521 53.3818 52.3521 53.4214 52.3521L54.2134 52.9857L55.0055 52.3521V52.3917Z" fill="black"/>
<path d="M56.906 55.7972H55.2032C55.1636 55.7972 55.124 55.7576 55.124 55.718V54.2528C55.124 54.2132 55.1636 54.1736 55.2032 54.1736H56.906C56.9456 54.1736 56.9456 54.1736 56.9456 54.2132L56.312 55.0052L56.9456 55.7972H56.906Z" fill="black"/>
<path d="M22.1767 57.8963H22.0975L21.8203 57.4607H21.8599C22.0975 57.4607 22.1767 57.6587 22.1767 57.8963Z" fill="black"/>
<path d="M22.6511 58.8461L22.4531 58.5293C22.5719 58.5689 22.6115 58.6877 22.6511 58.8461Z" fill="black"/>
<path d="M31.0472 58.6092C30.4928 59.5596 29.9383 60.4704 29.4235 61.4208C28.8295 62.4504 29.0275 62.292 27.8791 62.292C26.8891 62.292 25.8991 62.292 24.9091 62.292L23.0479 59.3616C23.1667 59.4012 23.2855 59.4408 23.3647 59.52C25.4635 61.2228 28.4335 60.1932 29.2255 57.6192C29.2255 57.6192 29.2255 57.6192 29.2255 57.5796C29.4631 56.748 29.3839 56.6688 28.5127 56.6688C28.0375 56.6688 27.5623 56.6688 27.1267 56.6688C26.9683 56.6688 26.8495 56.7084 26.8099 56.8668C26.7703 57.0252 26.6911 57.144 26.6119 57.2628C26.3347 57.7776 25.8991 57.936 25.3447 57.7776C24.8695 57.6588 24.4735 57.1836 24.4735 56.6688C24.4735 56.1936 24.7903 55.6787 25.2655 55.5203C25.5823 55.4015 25.9387 55.4807 26.2159 55.6391C26.2951 55.6787 26.4139 55.7183 26.4931 55.7975C27.0475 55.2431 27.6019 54.6887 28.1959 54.0947L31.0472 58.6092Z" fill="#111010"/>
<path d="M84.5079 74.1324H12.6725C10.8905 74.1324 9.46484 72.7068 9.46484 70.9248V44.036C9.46484 42.254 10.8905 40.8284 12.6725 40.8284H84.5079C86.2899 40.8284 87.7155 42.254 87.7155 44.036V70.9248C87.6759 72.7068 86.2503 74.1324 84.5079 74.1324Z" stroke="black" stroke-width="0.6" stroke-miterlimit="10"/>
<path d="M92.3087 42.2538C92.0711 42.2538 91.873 42.0558 91.873 41.8182V39.0462C91.873 38.8086 92.0711 38.6106 92.3087 38.6106C92.5463 38.6106 92.7443 38.8086 92.7443 39.0462V41.8182C92.7047 42.0954 92.5067 42.2538 92.3087 42.2538Z" fill="black"/>
<path d="M92.3087 48.6293C92.0711 48.6293 91.873 48.4313 91.873 48.1937V45.4217C91.873 45.1841 92.0711 44.9861 92.3087 44.9861C92.5463 44.9861 92.7443 45.1841 92.7443 45.4217V48.1937C92.7047 48.4313 92.5067 48.6293 92.3087 48.6293Z" fill="black"/>
<path d="M92.3087 54.966C92.0711 54.966 91.873 54.768 91.873 54.5304V51.7584C91.873 51.5208 92.0711 51.3228 92.3087 51.3228C92.5463 51.3228 92.7443 51.5208 92.7443 51.7584V54.5304C92.7047 54.768 92.5067 54.966 92.3087 54.966Z" fill="black"/>
<path d="M92.3087 61.3019C92.0711 61.3019 91.873 61.1039 91.873 60.8663V58.0943C91.873 57.8567 92.0711 57.6587 92.3087 57.6587C92.5463 57.6587 92.7443 57.8567 92.7443 58.0943V60.8663C92.7047 61.1039 92.5067 61.3019 92.3087 61.3019Z" fill="black"/>
<path d="M92.3087 67.6376C92.0711 67.6376 91.873 67.4396 91.873 67.202V64.43C91.873 64.1924 92.0711 63.9944 92.3087 63.9944C92.5463 63.9944 92.7443 64.1924 92.7443 64.43V67.202C92.7047 67.4792 92.5067 67.6376 92.3087 67.6376Z" fill="black"/>
<path d="M92.3087 74.0136C92.0711 74.0136 91.873 73.8156 91.873 73.578V70.806C91.873 70.5684 92.0711 70.3704 92.3087 70.3704C92.5463 70.3704 92.7443 70.5684 92.7443 70.806V73.578C92.7047 73.8156 92.5067 74.0136 92.3087 74.0136Z" fill="black"/>
<path d="M78.7658 13.2266C78.5678 13.3058 78.2906 13.2266 78.2114 13.0286L77.1026 10.4942C77.0234 10.2962 77.1026 10.019 77.3006 9.93977C77.4986 9.86057 77.7758 9.93977 77.855 10.1378L78.9638 12.6722C79.0826 12.9098 79.0034 13.1474 78.7658 13.2266Z" fill="black"/>
<path d="M81.3401 19.0479C81.1421 19.1271 80.8648 19.0479 80.7856 18.8499L79.6768 16.3155C79.5976 16.1175 79.6768 15.8403 79.8748 15.7611C80.0728 15.6819 80.35 15.7611 80.4292 15.9591L81.5381 18.4935C81.6173 18.6915 81.5381 18.9687 81.3401 19.0479Z" fill="black"/>
<path d="M83.8742 24.8692C83.6762 24.9484 83.399 24.8692 83.3198 24.6712L82.211 22.1368C82.1318 21.9388 82.211 21.6616 82.409 21.5824C82.607 21.5032 82.8842 21.5824 82.9634 21.7804L84.0722 24.3148C84.191 24.5128 84.0722 24.7504 83.8742 24.8692Z" fill="black"/>
<path d="M86.4485 30.6507C86.2505 30.7299 85.9732 30.6507 85.894 30.4527L84.7852 27.9183C84.706 27.7203 84.7852 27.443 84.9832 27.3638C85.1812 27.2846 85.4584 27.3638 85.5376 27.5618L86.6465 30.0963C86.7257 30.3339 86.6465 30.5715 86.4485 30.6507Z" fill="black"/>
<path d="M36.1158 60.3906C35.4822 60.3906 34.9278 60.2718 34.4526 59.9946C33.9774 59.7174 33.5814 59.3214 33.3042 58.8462C33.027 58.3314 32.9082 57.777 32.9082 57.1038C32.9082 56.4306 33.0666 55.8761 33.3438 55.3613C33.621 54.8465 34.017 54.4901 34.5318 54.2129C35.0466 53.9357 35.601 53.8169 36.195 53.8169C36.7891 53.8169 37.3831 53.9357 37.8583 54.2129C38.3731 54.4901 38.7691 54.8861 39.0463 55.3613C39.3235 55.8761 39.4819 56.4306 39.4819 57.1038C39.4819 57.777 39.3235 58.3314 39.0463 58.8462C38.7691 59.361 38.3731 59.7174 37.8583 59.9946C37.3039 60.2322 36.7495 60.3906 36.1158 60.3906ZM36.1158 58.965C36.3931 58.965 36.6703 58.8858 36.9475 58.767C37.2247 58.6086 37.4227 58.4106 37.5811 58.1334C37.7395 57.8562 37.8187 57.4998 37.8187 57.1038C37.8187 56.5098 37.6603 56.0345 37.3435 55.7177C37.0267 55.4009 36.6307 55.2029 36.195 55.2029C35.7198 55.2029 35.3634 55.3613 35.0466 55.7177C34.7298 56.0345 34.5714 56.5098 34.5714 57.1038C34.5714 57.6978 34.7298 58.173 35.007 58.5294C35.2842 58.8066 35.6802 58.965 36.1158 58.965ZM41.4619 52.7873C41.1847 52.7873 40.9471 52.7081 40.7491 52.5101C40.5511 52.3121 40.4719 52.1141 40.4719 51.8369C40.4719 51.5597 40.5511 51.3617 40.7491 51.1637C40.9471 50.9657 41.1847 50.8865 41.4619 50.8865C41.7391 50.8865 41.9767 50.9657 42.1747 51.1637C42.3727 51.3221 42.4519 51.5597 42.4519 51.8369C42.4519 52.1141 42.3727 52.3517 42.1747 52.5101C41.9767 52.7081 41.7391 52.7873 41.4619 52.7873ZM42.2539 53.8961V60.2718H40.6303V53.8961H42.2539ZM47.402 53.7773C48.1544 53.7773 48.788 54.0149 49.2632 54.4901C49.7384 54.9653 49.976 55.6385 49.976 56.5098V60.2718H48.3524V56.7474C48.3524 56.2325 48.2336 55.8365 47.9564 55.5989C47.7188 55.3217 47.3624 55.2029 46.9268 55.2029C46.4912 55.2029 46.1348 55.3217 45.8576 55.5989C45.62 55.8761 45.4616 56.2722 45.4616 56.7474V60.2718H43.838V53.8961H45.4616V54.6881C45.6596 54.4109 45.9368 54.2129 46.2932 54.0545C46.6496 53.8961 47.006 53.7773 47.402 53.7773Z" fill="black"/>
<path d="M58.8865 53.1042C58.6093 53.1042 58.3717 53.025 58.1737 52.827C57.9757 52.629 57.8965 52.431 57.8965 52.1538C57.8965 51.8766 57.9757 51.6786 58.1737 51.4806C58.3717 51.2826 58.6093 51.2034 58.8865 51.2034C59.1637 51.2034 59.4013 51.2826 59.5993 51.4806C59.7973 51.639 59.8765 51.8766 59.8765 52.1538C59.8765 52.431 59.7973 52.6686 59.5993 52.827C59.4013 53.025 59.1637 53.1042 58.8865 53.1042ZM59.6785 54.213V60.5887H58.0549V54.213H59.6785Z" fill="black"/>
<path d="M38 30L71.229 15.2617C72.7878 14.5708 74.5747 15.3001 75.2591 16.8353L81 30" stroke="black" stroke-width="0.8" stroke-miterlimit="10"/>
</svg>
